<svg width="32" height="33" viewBox="0 0 32 33" fill="none" xmlns="http://www.w3.org/2000/svg">
<circle cx="15.5" cy="9.5" r="8.5" stroke="black" stroke-width="2"/>
<path fill-rule="evenodd" clip-rule="evenodd" d="M16.0124 18.0171C13.3718 17.8931 9.42981 18.4188 6.10467 20.4448C2.70003 22.5193 0 26.1406 0 31.9999H2C2 26.88 4.29997 23.8865 7.14533 22.1528C10.0546 20.3801 13.5913 19.8997 15.9506 20.0164L16 19.0183L16.0532 20.0176C18.3988 19.8926 21.9229 20.4065 24.8264 22.3117C27.6684 24.1766 30 27.4234 30 32.9999H32C32 26.7526 29.3316 22.8758 25.9236 20.6396C22.6045 18.4617 18.6664 17.8884 16.0124 18.0171Z" fill="black"/>
</svg>
